<svg width="400" height="300" viewBox="0 0 400 300" fill="none" xmlns="http://www.w3.org/2000/svg">
  <rect width="400" height="300" fill="#FEFEFE"/>
  <rect x="20" y="20" width="360" height="260" fill="white" stroke="#D1D5DB" stroke-width="1" rx="4"/>
  
  <!-- Header with classic styling -->
  <rect x="40" y="40" width="140" height="14" fill="#1F2937" rx="2"/>
  <rect x="40" y="58" width="90" height="8" fill="#6B7280" rx="1"/>
  <rect x="40" y="70" width="110" height="8" fill="#6B7280" rx="1"/>
  
  <!-- Horizontal line -->
  <line x1="40" y1="90" x2="360" y2="90" stroke="#D1D5DB" stroke-width="1"/>
  
  <!-- Experience Section -->
  <rect x="40" y="110" width="90" height="10" fill="#1F2937" rx="2"/>
  <rect x="40" y="130" width="180" height="8" fill="#1F2937" rx="1"/>
  <rect x="40" y="142" width="140" height="6" fill="#6B7280" rx="1"/>
  <rect x="40" y="152" width="200" height="6" fill="#6B7280" rx="1"/>
  <rect x="40" y="162" width="170" height="6" fill="#6B7280" rx="1"/>
  
  <!-- Education Section -->
  <rect x="40" y="190" width="70" height="10" fill="#1F2937" rx="2"/>
  <rect x="40" y="210" width="160" height="8" fill="#1F2937" rx="1"/>
  <rect x="40" y="222" width="120" height="6" fill="#6B7280" rx="1"/>
  
  <!-- Classic border -->
  <rect x="20" y="20" width="360" height="260" fill="none" stroke="#9CA3AF" stroke-width="2" rx="4"/>
  
  <text x="200" y="280" text-anchor="middle" fill="#6B7280" font-size="12" font-family="serif">Classic Elegant</text>
</svg>