<svg width="300" height="400" viewBox="0 0 300 400" fill="none" xmlns="http://www.w3.org/2000/svg">
  <rect width="300" height="400" fill="url(#corporate-gradient)"/>
  <rect x="20" y="30" width="260" height="340" fill="white" rx="10"/>
  <circle cx="150" cy="80" r="25" fill="#1f2937"/>
  <rect x="40" y="120" width="220" height="8" fill="#374151" rx="4"/>
  <rect x="40" y="140" width="160" height="6" fill="#6b7280" rx="3"/>
  <rect x="40" y="170" width="180" height="6" fill="#374151" rx="3"/>
  <rect x="40" y="190" width="220" height="4" fill="#6b7280" rx="2"/>
  <rect x="40" y="220" width="200" height="4" fill="#374151" rx="2"/>
  <rect x="40" y="240" width="150" height="4" fill="#6b7280" rx="2"/>
  <rect x="40" y="270" width="180" height="4" fill="#374151" rx="2"/>
  <rect x="40" y="290" width="220" height="4" fill="#6b7280" rx="2"/>
  <rect x="40" y="320" width="160" height="4" fill="#374151" rx="2"/>
  <defs>
    <linearGradient id="corporate-gradient" x1="0%" y1="0%" x2="100%" y2="100%">
      <stop offset="0%" style="stop-color:#e5e7eb;stop-opacity:1" />
      <stop offset="100%" style="stop-color:#d1d5db;stop-opacity:1" />
    </linearGradient>
  </defs>
</svg>
