<svg width="400" height="300" viewBox="0 0 400 300" fill="none" xmlns="http://www.w3.org/2000/svg">
  <defs>
    <linearGradient id="creativeGrad" x1="0%" y1="0%" x2="100%" y2="100%">
      <stop offset="0%" style="stop-color:#8B5CF6;stop-opacity:1" />
      <stop offset="100%" style="stop-color:#EC4899;stop-opacity:1" />
    </linearGradient>
  </defs>
  
  <rect width="400" height="300" fill="#F3F4F6"/>
  <rect x="20" y="20" width="360" height="260" fill="white" stroke="#E5E7EB" stroke-width="2" rx="12"/>
  
  <!-- Creative header with gradient -->
  <rect x="40" y="40" width="120" height="14" fill="url(#creativeGrad)" rx="3"/>
  <rect x="40" y="58" width="80" height="8" fill="#6B7280" rx="1"/>
  <rect x="40" y="70" width="100" height="8" fill="#6B7280" rx="1"/>
  
  <!-- Creative shapes -->
  <circle cx="320" cy="60" r="15" fill="#8B5CF6" opacity="0.3"/>
  <rect x="340" y="45" width="20" height="20" fill="#EC4899" opacity="0.3" rx="4"/>
  
  <!-- Experience with creative styling -->
  <rect x="40" y="100" width="80" height="10" fill="url(#creativeGrad)" rx="2"/>
  <rect x="40" y="120" width="200" height="8" fill="#1F2937" rx="1"/>
  <rect x="40" y="132" width="150" height="6" fill="#6B7280" rx="1"/>
  <rect x="40" y="142" width="180" height="6" fill="#6B7280" rx="1"/>
  
  <!-- Creative skill bars -->
  <rect x="40" y="170" width="60" height="10" fill="url(#creativeGrad)" rx="2"/>
  <rect x="40" y="190" width="100" height="8" fill="#E5E7EB" rx="4"/>
  <rect x="40" y="190" width="80" height="8" fill="#8B5CF6" rx="4"/>
  <rect x="40" y="204" width="100" height="8" fill="#E5E7EB" rx="4"/>
  <rect x="40" y="204" width="90" height="8" fill="#EC4899" rx="4"/>
  
  <!-- Creative accent -->
  <rect x="0" y="0" width="12" height="300" fill="url(#creativeGrad)"/>
  
  <text x="200" y="280" text-anchor="middle" fill="#6B7280" font-size="12" font-family="Arial, sans-serif">Creative Portfolio</text>
</svg>