<svg width="300" height="400" viewBox="0 0 300 400" fill="none" xmlns="http://www.w3.org/2000/svg">
  <rect width="300" height="400" fill="url(#designer-gradient)"/>
  <rect x="20" y="30" width="260" height="340" fill="white" rx="15"/>
  <circle cx="150" cy="80" r="25" fill="url(#avatar-gradient)"/>
  <path d="M120 140 Q150 120 180 140" stroke="#ec4899" stroke-width="3" fill="none"/>
  <rect x="60" y="170" width="180" height="8" fill="#374151" rx="4"/>
  <rect x="60" y="190" width="120" height="6" fill="#6b7280" rx="3"/>
  <circle cx="80" cy="230" r="15" fill="#f59e0b"/>
  <circle cx="120" cy="230" r="15" fill="#10b981"/>
  <circle cx="160" cy="230" r="15" fill="#8b5cf6"/>
  <circle cx="200" cy="230" r="15" fill="#ef4444"/>
  <rect x="60" y="270" width="180" height="6" fill="#374151" rx="3"/>
  <rect x="60" y="290" width="140" height="4" fill="#6b7280" rx="2"/>
  <rect x="60" y="320" width="160" height="4" fill="#374151" rx="2"/>
  <defs>
    <linearGradient id="designer-gradient" x1="0%" y1="0%" x2="100%" y2="100%">
      <stop offset="0%" style="stop-color:#fce7f3;stop-opacity:1" />
      <stop offset="100%" style="stop-color:#e0e7ff;stop-opacity:1" />
    </linearGradient>
    <linearGradient id="avatar-gradient" x1="0%" y1="0%" x2="100%" y2="100%">
      <stop offset="0%" style="stop-color:#ec4899;stop-opacity:1" />
      <stop offset="100%" style="stop-color:#8b5cf6;stop-opacity:1" />
    </linearGradient>
  </defs>
</svg>
