<svg width="300" height="400" viewBox="0 0 300 400" fill="none" xmlns="http://www.w3.org/2000/svg">
  <rect width="300" height="400" fill="url(#nomad-gradient)"/>
  <rect x="20" y="30" width="260" height="340" fill="white" rx="15"/>
  <circle cx="150" cy="80" r="25" fill="#06b6d4"/>
  <rect x="125" y="55" width="50" height="50" fill="#0ea5e9" rx="25"/>
  <path d="M135 75 Q150 60 165 75 Q150 90 135 75 Z" fill="white"/>
  <rect x="40" y="120" width="220" height="8" fill="#374151" rx="4"/>
  <rect x="40" y="140" width="160" height="6" fill="#6b7280" rx="3"/>
  <rect x="40" y="170" width="180" height="6" fill="#374151" rx="3"/>
  <rect x="40" y="190" width="140" height="4" fill="#6b7280" rx="2"/>
  <circle cx="70" cy="230" r="12" fill="#06b6d4"/>
  <circle cx="110" cy="230" r="12" fill="#0ea5e9"/>
  <circle cx="150" cy="230" r="12" fill="#3b82f6"/>
  <circle cx="190" cy="230" r="12" fill="#8b5cf6"/>
  <circle cx="230" cy="230" r="12" fill="#ec4899"/>
  <rect x="40" y="270" width="200" height="4" fill="#374151" rx="2"/>
  <rect x="40" y="290" width="160" height="4" fill="#6b7280" rx="2"/>
  <rect x="40" y="320" width="180" height="4" fill="#374151" rx="2"/>
  <rect x="40" y="340" width="140" height="4" fill="#6b7280" rx="2"/>
  <defs>
    <linearGradient id="nomad-gradient" x1="0%" y1="0%" x2="100%" y2="100%">
      <stop offset="0%" style="stop-color:#cffafe;stop-opacity:1" />
      <stop offset="100%" style="stop-color:#a5f3fc;stop-opacity:1" />
    </linearGradient>
  </defs>
</svg>
