<svg width="400" height="300" viewBox="0 0 400 300" fill="none" xmlns="http://www.w3.org/2000/svg">
  <defs>
    <linearGradient id="execGrad" x1="0%" y1="0%" x2="100%" y2="100%">
      <stop offset="0%" style="stop-color:#1F2937;stop-opacity:1" />
      <stop offset="100%" style="stop-color:#374151;stop-opacity:1" />
    </linearGradient>
  </defs>
  
  <rect width="400" height="300" fill="#F9FAFB"/>
  <rect x="20" y="20" width="360" height="260" fill="white" stroke="#D1D5DB" stroke-width="1" rx="8"/>
  
  <!-- Executive header with premium styling -->
  <rect x="40" y="40" width="140" height="16" fill="url(#execGrad)" rx="3"/>
  <rect x="40" y="60" width="90" height="8" fill="#6B7280" rx="1"/>
  <rect x="40" y="72" width="110" height="8" fill="#6B7280" rx="1"/>
  
  <!-- Premium divider -->
  <rect x="40" y="95" width="320" height="2" fill="url(#execGrad)" rx="1"/>
  
  <!-- Executive experience -->
  <rect x="40" y="115" width="100" height="12" fill="#1F2937" rx="2"/>
  <rect x="40" y="135" width="220" height="9" fill="#1F2937" rx="1"/>
  <rect x="40" y="148" width="160" height="7" fill="#6B7280" rx="1"/>
  <rect x="40" y="158" width="200" height="7" fill="#6B7280" rx="1"/>
  <rect x="40" y="168" width="180" height="7" fill="#6B7280" rx="1"/>
  
  <!-- Executive achievements -->
  <rect x="40" y="190" width="90" height="12" fill="#1F2937" rx="2"/>
  <circle cx="50" cy="210" r="3" fill="#059669"/>
  <rect x="60" y="207" width="180" height="6" fill="#6B7280" rx="1"/>
  <circle cx="50" cy="225" r="3" fill="#059669"/>
  <rect x="60" y="222" width="160" height="6" fill="#6B7280" rx="1"/>
  
  <!-- Premium border -->
  <rect x="20" y="20" width="360" height="260" fill="none" stroke="url(#execGrad)" stroke-width="3" rx="8"/>
  
  <!-- Executive corner decoration -->
  <rect x="340" y="40" width="20" height="20" fill="url(#execGrad)" rx="4"/>
  
  <text x="200" y="280" text-anchor="middle" fill="#6B7280" font-size="12" font-family="Arial, sans-serif">Executive Suite</text>
</svg>