<svg width="300" height="400" viewBox="0 0 300 400" fill="none" xmlns="http://www.w3.org/2000/svg">
  <rect width="300" height="400" fill="url(#healthcare-gradient)"/>
  <rect x="20" y="30" width="260" height="340" fill="white" rx="10"/>
  <circle cx="150" cy="80" r="25" fill="#10b981"/>
  <rect x="135" y="65" width="30" height="30" fill="white" rx="15"/>
  <path d="M142 72 Q150 65 158 72 Q150 79 142 72 Z" fill="#ef4444"/>
  <rect x="40" y="120" width="220" height="8" fill="#374151" rx="4"/>
  <rect x="40" y="140" width="160" height="6" fill="#6b7280" rx="3"/>
  <rect x="40" y="170" width="180" height="6" fill="#374151" rx="3"/>
  <rect x="40" y="190" width="140" height="4" fill="#6b7280" rx="2"/>
  <circle cx="70" cy="230" r="15" fill="#10b981"/>
  <circle cx="120" cy="230" r="15" fill="#3b82f6"/>
  <circle cx="170" cy="230" r="15" fill="#8b5cf6"/>
  <circle cx="220" cy="230" r="15" fill="#f59e0b"/>
  <rect x="40" y="280" width="200" height="4" fill="#374151" rx="2"/>
  <rect x="40" y="300" width="160" height="4" fill="#6b7280" rx="2"/>
  <rect x="40" y="330" width="180" height="4" fill="#374151" rx="2"/>
  <rect x="40" y="350" width="140" height="4" fill="#6b7280" rx="2"/>
  <defs>
    <linearGradient id="healthcare-gradient" x1="0%" y1="0%" x2="100%" y2="100%">
      <stop offset="0%" style="stop-color:#d1fae5;stop-opacity:1" />
      <stop offset="100%" style="stop-color:#a7f3d0;stop-opacity:1" />
    </linearGradient>
  </defs>
</svg>
