<svg width="400" height="300" viewBox="0 0 400 300" fill="none" xmlns="http://www.w3.org/2000/svg">
  <rect width="400" height="300" fill="#FFFFFF"/>
  
  <!-- Minimal header -->
  <rect x="60" y="60" width="100" height="12" fill="#000000" rx="1"/>
  <rect x="60" y="76" width="70" height="6" fill="#666666" rx="1"/>
  <rect x="60" y="86" width="90" height="6" fill="#666666" rx="1"/>
  
  <!-- Minimal divider -->
  <line x1="60" y1="110" x2="340" y2="110" stroke="#CCCCCC" stroke-width="1"/>
  
  <!-- Experience -->
  <rect x="60" y="130" width="70" height="8" fill="#000000" rx="1"/>
  <rect x="60" y="150" width="160" height="6" fill="#000000" rx="1"/>
  <rect x="60" y="162" width="120" height="5" fill="#666666" rx="1"/>
  <rect x="60" y="172" width="140" height="5" fill="#666666" rx="1"/>
  
  <!-- Skills -->
  <rect x="60" y="200" width="50" height="8" fill="#000000" rx="1"/>
  <rect x="60" y="220" width="40" height="5" fill="#666666" rx="1"/>
  <rect x="110" y="220" width="50" height="5" fill="#666666" rx="1"/>
  <rect x="170" y="220" width="45" height="5" fill="#666666" rx="1"/>
  
  <text x="200" y="280" text-anchor="middle" fill="#666666" font-size="12" font-family="Arial, sans-serif">Minimalist Clean</text>
</svg>