<svg width="400" height="300" viewBox="0 0 400 300" fill="none" xmlns="http://www.w3.org/2000/svg">
  <rect width="400" height="300" fill="#F8FAFC"/>
  <rect x="20" y="20" width="360" height="260" fill="white" stroke="#E2E8F0" stroke-width="2" rx="8"/>
  
  <!-- Header -->
  <rect x="40" y="40" width="120" height="12" fill="#1E293B" rx="2"/>
  <rect x="40" y="56" width="80" height="8" fill="#64748B" rx="1"/>
  <rect x="40" y="68" width="100" height="8" fill="#64748B" rx="1"/>
  
  <!-- Experience Section -->
  <rect x="40" y="100" width="80" height="10" fill="#3B82F6" rx="2"/>
  <rect x="40" y="120" width="200" height="8" fill="#1E293B" rx="1"/>
  <rect x="40" y="132" width="150" height="6" fill="#64748B" rx="1"/>
  <rect x="40" y="142" width="180" height="6" fill="#64748B" rx="1"/>
  <rect x="40" y="152" width="160" height="6" fill="#64748B" rx="1"/>
  
  <!-- Skills Section -->
  <rect x="40" y="180" width="60" height="10" fill="#3B82F6" rx="2"/>
  <rect x="40" y="200" width="60" height="20" fill="#EBF4FF" stroke="#3B82F6" rx="10"/>
  <rect x="110" y="200" width="70" height="20" fill="#EBF4FF" stroke="#3B82F6" rx="10"/>
  <rect x="190" y="200" width="50" height="20" fill="#EBF4FF" stroke="#3B82F6" rx="10"/>
  
  <!-- Modern accent -->
  <rect x="0" y="0" width="8" height="300" fill="#3B82F6"/>
  
  <text x="200" y="280" text-anchor="middle" fill="#64748B" font-size="12" font-family="Arial, sans-serif">Modern Professional</text>
</svg>