<svg width="300" height="400" viewBox="0 0 300 400" fill="none" xmlns="http://www.w3.org/2000/svg">
  <rect width="300" height="400" fill="url(#sales-gradient)"/>
  <rect x="20" y="30" width="260" height="340" fill="white" rx="10"/>
  <circle cx="150" cy="80" r="25" fill="#10b981"/>
  <path d="M135 75 L150 60 L165 75 L150 90 Z" fill="#fbbf24"/>
  <rect x="40" y="120" width="220" height="8" fill="#374151" rx="4"/>
  <rect x="40" y="140" width="160" height="6" fill="#6b7280" rx="3"/>
  <rect x="40" y="170" width="180" height="6" fill="#374151" rx="3"/>
  <rect x="40" y="190" width="140" height="4" fill="#6b7280" rx="2"/>
  <rect x="60" y="220" width="60" height="30" fill="#10b981" rx="15"/>
  <text x="90" y="240" text-anchor="middle" fill="white" font-size="10" font-weight="bold">$2.5M</text>
  <rect x="140" y="220" width="60" height="30" fill="#3b82f6" rx="15"/>
  <text x="170" y="240" text-anchor="middle" fill="white" font-size="10" font-weight="bold">150</text>
  <rect x="220" y="220" width="60" height="30" fill="#8b5cf6" rx="15"/>
  <text x="250" y="240" text-anchor="middle" fill="white" font-size="10" font-weight="bold">95%</text>
  <rect x="40" y="280" width="200" height="4" fill="#374151" rx="2"/>
  <rect x="40" y="300" width="160" height="4" fill="#6b7280" rx="2"/>
  <rect x="40" y="330" width="180" height="4" fill="#374151" rx="2"/>
  <defs>
    <linearGradient id="sales-gradient" x1="0%" y1="0%" x2="100%" y2="100%">
      <stop offset="0%" style="stop-color:#dcfce7;stop-opacity:1" />
      <stop offset="100%" style="stop-color:#bbf7d0;stop-opacity:1" />
    </linearGradient>
  </defs>
</svg>
