<?xml version="1.0" encoding="UTF-8"?>
<svg width="400" height="300" viewBox="0 0 400 300" xmlns="http://www.w3.org/2000/svg">
  <defs>
    
    <linearGradient id="bg-tech" x1="0%" y1="0%" x2="100%" y2="100%">
      <stop offset="0%" style="stop-color:#e3f2fd;stop-opacity:1" />
      <stop offset="100%" style="stop-color:#f3e5f5;stop-opacity:1" />
    </linearGradient>
    
  </defs>
  
  <!-- Background -->
  <rect width="400" height="300" fill="url(#bg-tech)" />
  
  <!-- Left accent border -->
  <rect x="0" y="0" width="4" height="300" fill="#10b981" />
  
  <!-- Header section -->
  <rect x="20" y="20" width="360" height="60" fill="#064e3b" opacity="0.3" rx="4" />
  
  <!-- Name placeholder -->
  <rect x="30" y="30" width="200" height="16" fill="#10b981" rx="2" />
  <rect x="30" y="50" width="150" height="12" fill="#6b7280" rx="2" />
  
  <!-- Content sections -->
  <rect x="30" y="100" width="100" height="12" fill="#10b981" rx="2" />
  <rect x="30" y="120" width="340" height="8" fill="#9ca3af" rx="2" />
  <rect x="30" y="135" width="280" height="8" fill="#9ca3af" rx="2" />
  <rect x="30" y="150" width="320" height="8" fill="#9ca3af" rx="2" />
  
  <!-- Skills section -->
  <rect x="30" y="180" width="60" height="12" fill="#10b981" rx="2" />
  <rect x="30" y="200" width="60" height="20" fill="#10b981" opacity="0.1" rx="10" />
  <rect x="100" y="200" width="50" height="20" fill="#10b981" opacity="0.1" rx="10" />
  <rect x="160" y="200" width="70" height="20" fill="#10b981" opacity="0.1" rx="10" />
  
  <!-- Template name label -->
  <rect x="20" y="260" width="360" height="30" fill="#f8fafc" opacity="0.8" rx="4" />
  <text x="200" y="278" text-anchor="middle" font-family="Arial, sans-serif" font-size="12" fill="#374151" font-weight="500">
    Tech Innovator
  </text>
</svg>