<svg width="400" height="300" viewBox="0 0 400 300" fill="none" xmlns="http://www.w3.org/2000/svg">
  <rect width="400" height="300" fill="#0F172A"/>
  <rect x="20" y="20" width="360" height="260" fill="#1E293B" stroke="#334155" stroke-width="2" rx="8"/>
  
  <!-- Terminal-style header -->
  <rect x="40" y="40" width="120" height="12" fill="#00FF88" rx="2"/>
  <rect x="40" y="56" width="80" height="8" fill="#64748B" rx="1"/>
  <rect x="40" y="68" width="100" height="8" fill="#64748B" rx="1"/>
  
  <!-- Code-like sections -->
  <rect x="40" y="90" width="8" height="8" fill="#00FF88"/>
  <rect x="52" y="90" width="100" height="8" fill="#F1F5F9" rx="1"/>
  
  <rect x="40" y="110" width="80" height="10" fill="#00FF88" rx="2"/>
  <rect x="40" y="130" width="200" height="8" fill="#F1F5F9" rx="1"/>
  <rect x="40" y="142" width="150" height="6" fill="#94A3B8" rx="1"/>
  <rect x="40" y="152" width="180" height="6" fill="#94A3B8" rx="1"/>
  
  <!-- Tech skills as code blocks -->
  <rect x="40" y="180" width="60" height="10" fill="#00FF88" rx="2"/>
  <rect x="40" y="200" width="60" height="18" fill="#0F172A" stroke="#00FF88" rx="4"/>
  <rect x="110" y="200" width="70" height="18" fill="#0F172A" stroke="#00FF88" rx="4"/>
  <rect x="190" y="200" width="50" height="18" fill="#0F172A" stroke="#00FF88" rx="4"/>
  
  <!-- Terminal prompt -->
  <rect x="40" y="240" width="8" height="8" fill="#00FF88"/>
  <rect x="52" y="240" width="4" height="8" fill="#00FF88"/>
  
  <!-- Tech accent -->
  <rect x="0" y="0" width="6" height="300" fill="#00FF88"/>
  
  <text x="200" y="280" text-anchor="middle" fill="#64748B" font-size="12" font-family="monospace">Tech Innovator</text>
</svg>